<?xml version="1.0" encoding="utf-8"?>
<svg width="220px" height="70px" viewBox="0 0 220 70" version="1.1" xmlns:xlink="http://www.w3.org/1999/xlink" xmlns="http://www.w3.org/2000/svg">
  <desc>Created with Lunacy</desc>
  <defs>
    <rect width="220" height="70" id="artboard_1" />
    <clipPath id="clip_1">
      <use xlink:href="#artboard_1" clip-rule="evenodd" />
    </clipPath>
  </defs>
  <g id="Artboard-2" clip-path="url(#clip_1)">
    <use xlink:href="#artboard_1" stroke="none" fill="#FFFFFF" />
    <g id="PAZAR" fill="#333333" transform="translate(7.000244 7)">
      <path d="M88.767 38.5688Q88.7347 35.8022 87.68 35.8022Q87.168 35.8022 86.016 37.0822Q79.616 43.7383 77.888 43.7383Q76.928 43.7383 76.672 42.8423Q76.416 41.9463 76.416 40.2183Q76.416 38.4902 77.504 35.6742Q78.592 32.8582 79.872 29.4022Q83.328 20.4423 83.296 14.8422Q83.264 9.24225 80.416 5.85025Q77.568 2.45826 71.168 2.39425Q67.584 2.39425 64.384 4.31425Q55.68 9.43425 49.664 24.7302Q44.224 25.7542 41.024 27.7382Q37.888 29.7222 37.888 31.6422Q37.888 32.2822 39.104 32.2822Q40.32 32.2822 42.464 31.9622Q44.608 31.6422 47.424 31.3222Q44.8 40.3462 44.8 46.1063Q44.8 51.8662 48 51.8662Q49.28 51.8662 50.4 51.3543Q51.52 50.8423 52.736 50.2663Q55.36 48.9863 55.36 45.5303Q55.36 37.7223 56.512 30.6182L57.408 30.6182Q61.44 30.6183 70.272 31.0022Q67.392 39.9622 67.392 43.6423Q67.392 47.3223 68.832 49.2103Q70.272 51.0983 74.048 51.0983Q76.544 51.0983 79.168 49.8823Q81.5874 48.7611 83.5987 47.0686Q84.0368 48.7839 85.184 50.0103Q87.04 51.9943 91.008 51.9943Q97.216 51.9943 100.992 47.9622L101.248 47.7702Q103.424 49.0503 105.856 50.0742Q108.288 51.0983 110.976 51.0983Q117.056 51.0342 121.28 46.7783Q125.504 42.5222 125.504 37.9782Q125.504 35.8022 124.544 35.8022Q123.84 35.8022 122.752 37.1462Q121.664 38.4902 120.288 40.0902Q118.912 41.6903 117.344 43.0342Q115.776 44.3783 113.664 44.3783Q111.552 44.3783 109.696 43.6742Q107.84 42.9702 105.984 42.0103Q109.44 37.0822 113.024 30.1062Q116.736 30.4262 118.08 30.4262Q119.744 30.4262 120.256 28.3142Q120.512 27.2902 120.832 26.3302Q121.152 25.3702 121.152 24.9862Q121.152 23.7062 119.744 23.7062L116.032 23.7062Q120.064 14.3622 120.064 9.62625Q120.064 8.41025 119.168 7.51425Q115.904 4.25025 105.152 4.25025Q98.432 4.31425 92.864 7.25825Q87.744 10.0743 87.744 12.1862Q87.744 13.5942 89.664 13.5942Q90.56 13.5303 95.328 11.9942Q100.096 10.4583 104.128 10.4582Q106.496 10.4583 109.376 11.4182Q108.48 14.2983 107.68 17.3702Q106.88 20.4423 105.792 23.8342Q99.52 24.7303 95.488 26.6822Q91.456 28.6343 91.456 31.0022Q91.456 31.6422 92.288 31.6422Q94.144 31.6422 97.152 31.2262Q100.16 30.8102 103.424 30.4902Q101.312 35.3542 99.136 39.1302Q95.68 38.2342 91.904 38.2342Q90.1945 38.2342 88.767 38.5688ZM168.896 35.8022Q169.984 35.8022 169.984 38.7463Q169.984 40.3462 168.64 42.6182Q167.296 44.8903 165.152 46.7783Q163.008 48.6663 160.384 49.8823Q157.76 51.0983 155.264 51.0983Q151.488 51.0983 150.048 49.2103Q148.608 47.3223 148.608 43.6423Q148.608 39.9622 151.488 31.0022Q142.656 30.6183 138.624 30.6182L137.728 30.6182Q136.576 37.7223 136.576 45.5303Q136.576 48.9863 133.952 50.2663Q132.736 50.8423 131.616 51.3543Q130.496 51.8662 129.216 51.8662Q128.461 51.8662 127.885 51.5458Q126.016 50.5077 126.016 46.1063Q126.016 40.3462 128.64 31.3222Q125.824 31.6422 123.68 31.9622Q121.536 32.2822 120.32 32.2822Q119.104 32.2822 119.104 31.6422Q119.104 29.7222 122.24 27.7382Q125.44 25.7542 130.88 24.7302Q136.896 9.43425 145.6 4.31425Q148.8 2.39425 152.384 2.39425Q158.784 2.45826 161.632 5.85025Q164.48 9.24225 164.512 14.8422Q164.544 20.4423 161.088 29.4022Q159.808 32.8582 158.72 35.6742Q157.632 38.4902 157.632 40.2183Q157.632 41.9463 157.888 42.8423Q158.144 43.7383 159.104 43.7383Q160.832 43.7383 167.232 37.0822Q168.384 35.8022 168.896 35.8022ZM211.648 38.7463Q211.648 35.8022 210.56 35.8022Q210.048 35.8022 208.864 37.0502Q207.68 38.2982 206.208 39.7702Q204.736 41.2422 203.232 42.4902Q201.728 43.7383 200.672 43.7383Q199.616 43.7383 198.88 42.3942Q198.144 41.0503 197.568 39.0023Q196.992 36.9543 196.384 34.5222Q195.776 32.0902 194.816 29.9782Q199.168 28.3782 202.112 24.7302Q205.056 21.0823 204.992 15.5782Q204.992 8.92226 199.296 5.59425Q194.432 2.77826 186.944 2.74625Q179.456 2.71425 173.504 6.87425Q171.136 8.53825 169.92 10.2022Q168.704 11.8662 168.704 12.6022Q168.704 13.3382 169.856 13.3382Q171.008 13.3383 172.32 12.6342Q173.632 11.9303 175.328 11.0982Q177.024 10.2663 179.392 9.56225Q181.76 8.85825 186.208 8.85825Q190.656 8.85825 192.96 10.9063Q195.264 12.9542 195.264 16.3783Q195.264 19.8022 194.144 21.8182Q193.024 23.8343 191.232 25.3062Q189.888 24.4743 188.192 24.4742Q186.496 24.4743 185.184 25.1142Q183.872 25.7542 183.872 27.1942Q183.872 28.6343 185.12 29.6262Q186.368 30.6183 188.032 30.9382Q188.736 33.3702 189.44 39.4823Q190.144 45.5942 191.232 47.7702Q192 49.3063 193.344 50.2023Q194.688 51.0983 197.056 51.0983Q199.424 51.0983 202.048 49.8823Q204.672 48.6663 206.816 46.7783Q208.96 44.8903 210.304 42.6182Q211.648 40.3462 211.648 38.7463ZM19.008 30.8742Q19.008 30.0423 19.936 29.7862Q20.864 29.5303 22.272 29.3062Q23.68 29.0822 25.344 28.6342Q27.008 28.1862 28.416 26.9702Q31.68 24.1543 31.68 17.5622Q31.68 13.3382 28.832 11.0982Q25.984 8.85825 20.64 8.85825Q15.296 8.85825 10.624 11.0982Q8.896 11.9303 7.52 12.6342Q6.144 13.3383 4.992 13.3382Q4.15324 13.3382 3.92517 12.965Q3.84 12.8257 3.84 12.6342Q3.84 11.5462 5.952 9.05025Q8.064 6.74625 12.64 4.76225Q17.216 2.77825 22.272 2.77825Q31.808 2.71425 37.12 7.25825Q41.728 11.2262 41.728 17.5302Q41.728 23.8343 37.184 28.7942Q32.64 33.7542 25.824 33.7542Q20.0406 33.7542 19.1644 31.6807Q19.008 31.3105 19.008 30.8742ZM74.048 16.7302Q74.048 11.1623 69.888 11.1622Q65.664 11.1622 62.624 14.7142Q59.584 18.2663 57.92 24.2182L72.448 24.4102Q74.048 19.2902 74.048 16.7302ZM155.264 16.7302Q155.264 11.1623 151.104 11.1622Q146.88 11.1622 143.84 14.7142Q140.8 18.2663 139.136 24.2182L153.664 24.4102Q155.264 19.2902 155.264 16.7302ZM14.656 48.0902Q14.656 51.8662 7.296 51.8662Q5.696 51.8662 5.408 50.2342Q5.12 48.6022 5.12 45.6582Q5.12 39.4502 7.616 30.2982Q11.776 15.1943 16.512 12.5062Q17.152 12.1223 17.92 12.1222Q18.688 12.1222 18.688 14.6182Q18.688 17.1143 18.432 19.0342Q17.92 22.8743 16.608 28.9542Q15.296 35.0343 15.296 36.1222L14.656 48.0902ZM183.552 14.9382Q183.552 12.7622 182.72 12.7622Q181.312 12.7623 180.096 13.7862Q178.88 14.8102 178.24 15.7702Q175.104 20.6982 172.224 30.1062Q169.344 39.5143 169.344 45.6903Q169.344 51.8662 172.032 51.8662Q173.44 51.8662 174.56 51.3543Q175.68 50.8423 176.896 50.2663Q179.52 48.9863 179.52 45.5303L179.52 36.1222Q179.52 34.6502 181.824 25.9462Q182.72 22.7463 183.296 19.0342Q183.552 17.1143 183.552 14.9382ZM91.84 43.2902Q93.376 43.2903 95.552 44.3783Q93.12 47.0023 91.712 47.0023Q90.944 47.0023 90.24 46.5863Q89.536 46.1702 89.536 45.2103Q89.536 44.2503 90.24 43.7702Q90.944 43.2903 91.84 43.2902Z" />
    </g>
  </g>
</svg>