<?xml version="1.0" encoding="utf-8"?>
<svg width="512px" height="512px" viewBox="0 0 512 512" version="1.1" xmlns:xlink="http://www.w3.org/1999/xlink" xmlns="http://www.w3.org/2000/svg">
  <desc>Created with Lunacy</desc>
  <defs>
    <path d="M0 55C0 24.6243 24.6243 0 55 0C85.3757 0 110 24.6243 110 55C110 85.3757 85.3757 110 55 110C24.6243 110 0 85.3757 0 55Z" transform="translate(129 372)" id="path_1" />
    <path d="M0 55C0 24.6243 24.6243 0 55 0C85.3757 0 110 24.6243 110 55C110 85.3757 85.3757 110 55 110C24.6243 110 0 85.3757 0 55Z" transform="translate(300 372)" id="path_2" />
    <rect width="512" height="512" id="artboard_1" />
    <clipPath id="clip_1">
      <use xlink:href="#artboard_1" clip-rule="evenodd" />
    </clipPath>
    <clipPath id="clip_2">
      <use xlink:href="#path_1" />
    </clipPath>
    <clipPath id="clip_3">
      <use xlink:href="#path_2" />
    </clipPath>
  </defs>
  <g id="Artboard" clip-path="url(#clip_1)">
    <use xlink:href="#artboard_1" stroke="none" fill="#FFFFFF" />
    <g id="Oval">
      <use stroke="none" fill="#FFFFFF" xlink:href="#path_1" />
      <g clip-path="url(#clip_2)">
        <use xlink:href="#path_1" fill="none" stroke="#333333" stroke-width="50" />
      </g>
    </g>
    <g id="Oval-2">
      <use stroke="none" fill="#FFFFFF" xlink:href="#path_2" />
      <g clip-path="url(#clip_3)">
        <use xlink:href="#path_2" fill="none" stroke="#333333" stroke-width="50" />
      </g>
    </g>
    <path d="M0 2L27.4492 0L99.9485 282.955L352.449 283L397.358 115.598L284.404 114.562" transform="translate(57.55078 43)" id="New-shape" fill="none" stroke="#333333" stroke-width="25" />
    <path d="M0 0L110 0" transform="translate(123 157)" id="New-shape-2" fill="none" stroke="#333333" stroke-width="25" />
    <path d="M1 0L1 151" transform="translate(286.0002 120.0001)" id="Arrow" fill="none" stroke="#333333" stroke-width="24" />
  </g>
</svg>