<?xml version="1.0" encoding="utf-8"?>
<svg width="256px" height="256px" viewBox="0 0 256 256" version="1.1" xmlns:xlink="http://www.w3.org/1999/xlink" xmlns="http://www.w3.org/2000/svg">
  <desc>Created with Lunacy</desc>
  <defs>
    <rect width="256" height="256" id="artboard_1" />
    <clipPath id="clip_1">
      <use xlink:href="#artboard_1" clip-rule="evenodd" />
    </clipPath>
  </defs>
  <g id="favicon" clip-path="url(#clip_1)">
    <use xlink:href="#artboard_1" stroke="none" fill="#FFFFFF" fill-opacity="0" />
    <g id="P" fill="#FF6347" transform="translate(39.99976 100)">
      <path d="M65.952 116.656Q65.952 133.648 32.832 133.648Q25.632 133.648 24.336 126.304Q23.04 118.96 23.04 105.712Q23.04 77.7761 34.272 36.5921Q52.992 -31.3759 74.304 -43.4719Q77.184 -45.1999 80.64 -45.1999Q84.096 -45.1999 84.096 -33.9679Q84.096 -22.7359 82.944 -14.0959Q80.64 3.18413 74.736 30.5441Q68.832 57.9041 68.832 62.8001L65.952 116.656ZM85.536 39.1841Q85.536 35.4401 89.712 34.2881Q93.888 33.1361 100.224 32.1281Q106.56 31.1201 114.048 29.1041Q121.536 27.0881 127.872 21.6161Q142.56 8.94414 142.56 -20.7199Q142.56 -39.7279 129.744 -49.8079Q116.928 -59.8879 92.88 -59.8879Q68.832 -59.8879 47.808 -49.8079Q40.032 -46.0639 33.84 -42.8959Q27.648 -39.7279 22.464 -39.7279Q17.28 -39.7279 17.28 -42.8959Q17.28 -47.7919 26.784 -59.0239Q36.288 -69.3919 56.88 -78.3199Q77.472 -87.2479 100.224 -87.2479Q143.136 -87.5359 167.04 -67.0879Q187.776 -49.2319 187.776 -20.8639Q187.776 7.50414 167.328 29.8241Q146.88 52.1441 116.208 52.1441Q85.536 52.1441 85.536 39.1841Z" />
    </g>
  </g>
</svg>